HIERARCHY
ROOT hip
{
	OFFSET 0.000000 0.000000 0.000000 
	CHANNELS 6 Xposition Yposition Zposition Xrotation Zrotation Yrotation
	JOINT abdomen
	{
		OFFSET 0.000000 3.402643 0.000000 
		CHANNELS 3 Xrotation Zrotation Yrotation
		JOINT chest
		{
			OFFSET 0.000000 8.438565 -0.680529 
			CHANNELS 3 Xrotation Zrotation Yrotation
			JOINT neck
			{
				OFFSET 0.000000 10.207942 -0.272212 
				CHANNELS 3 Xrotation Zrotation Yrotation
				JOINT head
				{
					OFFSET 0.000000 3.130431 0.000000 
					CHANNELS 3 Xrotation Zrotation Yrotation
					End Site
					{
						OFFSET 0.000000 3.130435 0.000000 
					}
				}
			}
			JOINT lCollar
			{
				OFFSET 3.470700 6.669187 -0.816635 
				CHANNELS 3 Yrotation Zrotation Xrotation
				JOINT lShldr
				{
					OFFSET 3.198488 0.000000 0.000000 
					CHANNELS 3 Zrotation Yrotation Xrotation
					JOINT lForeArm
					{
						OFFSET 10.139888 0.000000 0.000000 
						CHANNELS 3 Yrotation Zrotation Xrotation
						JOINT lHand
						{
							OFFSET 8.370511 0.000000 0.000000 
							CHANNELS 3 Zrotation Yrotation Xrotation
							End Site
							{
								OFFSET 4.083176 0.000000 0.000000 
							}
						}
					}
				}
			}
			JOINT rCollar
			{
				OFFSET -3.470700 6.669187 -0.816635 
				CHANNELS 3 Yrotation Zrotation Xrotation
				JOINT rShldr
				{
					OFFSET -3.198488 0.000000 0.000000 
					CHANNELS 3 Zrotation Yrotation Xrotation
					JOINT rForeArm
					{
						OFFSET -10.139888 0.000000 0.000000 
						CHANNELS 3 Yrotation Zrotation Xrotation
						JOINT rHand
						{
							OFFSET -8.370511 0.000000 0.000000 
							CHANNELS 3 Zrotation Yrotation Xrotation
							End Site
							{
								OFFSET -4.083176 0.000000 0.000000 
							}
						}
					}
				}
			}
		}
	}
	JOINT lThigh
	{
		OFFSET 5.308129 -1.633274 1.361059 
		CHANNELS 3 Xrotation Zrotation Yrotation
		JOINT lShin
		{
			OFFSET -2.041588 -20.007561 0.000000 
			CHANNELS 3 Xrotation Zrotation Yrotation
			JOINT lFoot
			{
				OFFSET 0.000000 -19.190928 -1.224953 
				CHANNELS 3 Xrotation Yrotation Zrotation
				End Site
				{
					OFFSET 0.000000 -2.449906 4.627600 
				}
			}
		}
	}
	JOINT rThigh
	{
		OFFSET -5.308129 -1.633274 1.361059 
		CHANNELS 3 Xrotation Zrotation Yrotation
		JOINT rShin
		{
			OFFSET 2.041588 -20.007561 0.000000 
			CHANNELS 3 Xrotation Zrotation Yrotation
			JOINT rFoot
			{
				OFFSET 0.000000 -19.190928 -1.224953 
				CHANNELS 3 Xrotation Yrotation Zrotation
				End Site
				{
					OFFSET 0.000000 -2.449906 4.627600 
				}
			}
		}
	}
}
MOTION
Frames: 8
Frame Time: 0.033333
3.404880 39.968559 0.591209 -50.508045 0.097656 -0.136719 45.574577 7.295828 -30.447880 9.744081 -0.249553 -10.625112 -8.544920 -0.009766 -0.009767 3.021680 20.785437 27.896143 1.992188 -2.001953 0.000341 73.206741 -45.800289 -62.307484 -23.037994 -0.770356 8.371221 -8.955896 -40.012066 -139.357620 -2.001953 1.992188 0.000000 35.456879 121.547234 10.350918 42.283234 0.598025 8.480475 18.117037 -27.213388 261.603394 8.436934 9.520861 0.957082 62.584545 0.543058 -3.891563 -20.791174 -3.314645 -5.617424 57.796589 -11.230014 -2.982876 36.214043 0.877272 2.755661 -43.338779 0.099258 8.901428 
3.397366 39.957272 0.583696 -50.508045 0.097656 -0.136719 45.574577 7.295828 -30.447880 9.744081 -0.249553 -10.625112 -8.544920 -0.009766 -0.009767 3.021680 20.785437 27.896143 1.992188 -2.001953 0.000341 73.206741 -45.800289 -62.307484 -23.037994 -0.770356 8.371221 -8.955896 -40.012066 -139.357620 -2.001953 1.992188 0.000000 35.456879 121.547234 10.350918 42.283234 0.598025 8.480475 18.117037 -27.213388 261.603394 8.436934 9.520861 0.957082 62.584545 0.543056 -3.891563 -20.791174 -3.314645 -5.617424 57.796589 -11.230017 -2.982876 36.214043 0.877271 2.755661 -43.338783 0.099258 8.901428 
3.389852 39.946056 0.576183 -50.508045 0.097656 -0.136719 45.574577 7.295828 -30.447880 9.744081 -0.249553 -10.625112 -8.544920 -0.009766 -0.009767 3.300755 20.653469 27.984526 1.992188 -2.001953 0.000341 73.342964 -45.745281 -62.434288 -24.911293 -0.746553 8.376168 -9.339804 -38.110210 -139.573730 -2.001953 1.992188 0.000000 36.502060 119.079582 11.183118 46.025654 0.568644 8.513205 18.551088 -28.189417 -99.002121 8.279725 9.540636 0.928314 62.692223 0.544164 -3.886036 -20.734734 -3.344716 -5.621226 57.505970 -11.229781 -2.960937 36.584908 0.861615 2.779013 -43.437126 0.128212 8.882502 
3.382339 39.934837 0.568670 -50.508045 0.097656 -0.136719 45.574577 7.295828 -30.447880 9.744081 -0.249553 -10.625112 -8.544920 -0.009766 -0.009767 3.578107 20.511229 28.085489 1.992188 -2.001953 0.000341 73.479721 -45.701408 -62.569008 -26.774172 -0.734047 8.386664 -9.714269 -36.216846 -139.804871 -2.001953 1.992188 0.000000 37.730759 116.612465 12.211143 49.767227 0.551111 8.548406 18.984234 -29.156214 -99.618233 8.122334 9.558751 0.919122 62.789436 0.544037 -3.900070 -20.692562 -3.348178 -5.631957 57.232235 -11.239930 -2.916137 36.945965 0.847948 2.802430 -43.547699 0.105285 8.854333 
3.417401 39.769493 0.603732 -50.508045 0.097656 -0.136719 45.574577 7.295828 -30.447880 7.652865 -0.247831 -12.558727 -8.544920 -0.009766 -0.009767 8.480856 18.981104 30.912056 1.992188 -2.001953 0.000341 64.542503 -41.568001 -55.763439 -41.956192 -0.628887 8.505919 -12.250508 -28.274315 -141.933411 -2.001953 1.992188 0.000000 33.814709 113.426567 7.679157 55.432400 0.525391 8.606084 19.688002 -30.585651 -100.592117 7.514573 9.584278 0.835996 63.033241 0.563507 -3.899461 -20.363955 -3.364532 -5.658286 56.055294 -11.258362 -2.822744 38.410389 0.763748 2.877116 -43.858875 0.172284 8.854740 
3.452450 39.604153 0.638780 -50.508045 0.097656 -0.136719 45.574577 7.295828 -30.447880 5.568876 -0.312025 -14.482682 -8.544920 -0.009766 -0.009767 13.257960 17.236483 33.556793 1.992188 -2.001953 0.000341 56.811703 -36.784340 -50.240520 -57.133968 -0.552029 8.644725 -14.940331 -20.429180 -144.315018 -2.001953 1.992188 0.000000 28.615925 110.399239 1.871403 61.106300 0.499290 8.669073 20.423441 -32.004349 -101.586327 6.918587 9.613476 0.743025 63.276745 0.573086 -3.914240 -20.034956 -3.370892 -5.700325 54.895210 -11.287891 -2.725360 39.864880 0.695207 2.945168 -44.181835 0.209852 8.841701 
3.294680 39.321182 0.481010 -50.508045 0.097656 -0.136719 42.675713 6.900977 -32.253746 5.442560 -0.311860 -14.599866 -8.544920 -0.009766 -0.009767 16.254496 15.626368 35.295662 1.992188 -2.001953 0.000341 47.323677 -34.285721 -42.340588 -67.246132 -0.522183 8.746841 -14.349203 -16.109110 -145.441391 -2.001953 1.992188 0.000000 18.566530 112.117386 -7.089831 59.416832 0.511553 8.654945 20.210768 -31.609087 -101.301651 6.776124 10.046629 0.744778 63.315289 0.591679 -3.914612 -19.966782 -3.661255 -6.025708 54.519394 -10.917733 -2.577024 40.401829 0.681993 2.966979 -44.360359 0.145829 8.419791 
3.136865 39.038239 0.323195 -50.508045 0.097656 -0.136719 39.790745 6.421164 -34.040833 5.303998 -0.302248 -14.717052 -8.544920 -0.009766 -0.009767 19.177450 13.936279 36.931835 1.992188 -2.001953 0.000341 38.631618 -30.793030 -35.284176 -77.358887 -0.522050 8.848127 -13.846450 -11.772151 -146.492462 -2.001953 1.992188 0.000000 10.047263 114.337189 -14.516430 57.737072 0.522172 8.629582 19.996582 -31.209784 -101.016075 6.626777 10.471675 0.735610 63.353172 0.601332 -3.939516 -19.898165 -3.925327 -6.346056 54.145210 -10.546634 -2.463853 40.947624 0.652903 3.012694 -44.555477 0.085558 8.013963 
